<svg xmlns="http://www.w3.org/2000/svg" width="64" height="64" viewBox="0 0 64 64" fill="none">
  <defs>
    <linearGradient id="favTile" x1="8" y1="6" x2="56" y2="60" gradientUnits="userSpaceOnUse">
      <stop offset="0%" stop-color="#0EA5E9" />
      <stop offset="100%" stop-color="#0369A1" />
    </linearGradient>
    <linearGradient id="favRoute" x1="14" y1="20" x2="50" y2="52" gradientUnits="userSpaceOnUse">
      <stop offset="0%" stop-color="#38BDF8" />
      <stop offset="100%" stop-color="#F97316" />
    </linearGradient>
    <linearGradient id="favPackage" x1="36" y1="30" x2="48" y2="48" gradientUnits="userSpaceOnUse">
      <stop offset="0%" stop-color="#FDBA74" />
      <stop offset="100%" stop-color="#EA580C" />
    </linearGradient>
    <linearGradient id="favLid" x1="36" y1="28" x2="48" y2="34" gradientUnits="userSpaceOnUse">
      <stop offset="0%" stop-color="#FDE68A" />
      <stop offset="100%" stop-color="#FB923C" />
    </linearGradient>
  </defs>
  <rect x="4" y="4" width="56" height="56" rx="16" fill="url(#favTile)" />
  <path d="M18 44C18 28 26 22 34 24s18 10 8.5 20.5" stroke="url(#favRoute)" stroke-width="6" stroke-linecap="round" stroke-linejoin="round" />
  <circle cx="22" cy="46" r="4" fill="#E0F2FE" stroke="#38BDF8" stroke-width="2" />
  <g transform="translate(28 26)">
    <path d="M8 12 16 8l8 4v10l-8 4-8-4z" fill="url(#favPackage)" stroke="#FB923C" stroke-width="1.6" stroke-linejoin="round" />
    <path d="M16 8v9" stroke="#EA580C" stroke-width="1.6" stroke-linecap="round" />
    <path d="M8 12 16 16l8-4" fill="none" stroke="#FDE68A" stroke-width="1.6" stroke-linecap="round" stroke-linejoin="round" />
    <path d="M8 12 16 8l8 4-8 4z" fill="url(#favLid)" stroke="#FB923C" stroke-width="1.6" stroke-linejoin="round" />
  </g>
</svg>
